<svg width="200" height="200" viewBox="0 0 200 200" fill="none" xmlns="http://www.w3.org/2000/svg">
<path d="M87.1744 0.0588905C87.0109 0.10965 86.9291 1.81009 87.0109 4.65261C87.0654 7.13982 86.9564 10.7183 86.7929 12.5964C86.6294 14.4745 86.3569 18.9414 86.1934 22.4945C85.8391 29.347 85.8391 29.4739 84.2858 31.4535C83.8497 32.0119 83.5227 32.5195 83.5772 32.5702C83.6317 32.621 84.967 32.4687 86.5204 32.2657C88.5642 31.9865 91.1531 31.885 95.813 31.9104L102.272 31.9357L103.362 31.2251C104.533 30.4637 105.678 28.6618 106.005 27.1136C106.223 26.1238 106.25 26.1238 102.462 26.7837C100.964 27.0629 98.1294 27.4182 96.1673 27.5704C94.2325 27.7227 92.3521 27.875 92.0251 27.9258C91.4256 28.0019 91.3983 27.9258 91.3983 25.9715C91.3983 24.8548 91.7799 19.8043 92.2431 14.7791C92.7064 9.72854 93.0334 4.88103 92.9517 3.99274C92.7881 2.14002 92.2431 1.25173 90.8261 0.617243C89.8723 0.211169 87.6649 -0.144147 87.1744 0.0588905Z" fill="black"/>
<path d="M143.994 12.5709C137.344 14.5759 132.63 19.1443 130.041 26.0476C129.251 28.2048 129.169 28.7632 129.142 31.3773C129.142 34.1183 129.196 34.3975 129.959 35.8187C131.54 38.7374 134.701 40.9454 138.407 41.6814C141.595 42.3413 144.184 42.0368 147.454 40.6409C149.553 39.7272 150.207 39.0673 149.716 38.2298C149.362 37.5953 149.389 37.5953 146.528 38.3821C143.667 39.1688 141.323 39.1181 139.225 38.2552C137.589 37.5699 136.772 36.9101 136.009 35.5649C135.518 34.7274 135.409 34.1437 135.437 32.2656C135.437 30.3113 135.573 29.6768 136.309 27.951C138.925 21.7838 144.484 16.4794 149.198 15.6419C151.869 15.1597 154.049 15.9464 154.976 17.723C155.875 19.4488 155.003 21.0985 151.324 24.7024C150.561 25.4384 150.043 26.1744 150.152 26.3267C150.507 26.8597 152.578 27.5703 153.886 27.5703C155.521 27.5703 156.72 27.1135 158.082 25.9714C161.244 23.2812 161.434 18.6113 158.464 15.9211C156.992 14.6013 154.158 13.1039 151.924 12.4948C149.907 11.9364 145.956 11.9872 143.994 12.5709Z" fill="black"/>
<path d="M35.615 14.627C34.6884 14.8301 32.8081 16.0229 32.8081 16.4036C32.8081 16.5305 33.1896 16.8604 33.6256 17.165C34.0889 17.4695 34.5794 17.9264 34.7429 18.2055C35.1245 18.8654 35.6967 24.2459 36.0783 30.87C36.814 43.2553 37.0593 45.9455 37.5771 46.9353C38.1766 48.1028 39.1849 48.6357 40.8745 48.6357H42.128L41.9373 46.9099C41.8283 45.9709 41.5285 44.0166 41.2287 42.5446C40.5747 39.1438 40.5747 37.9255 41.2015 37.4179C41.4467 37.1895 42.9456 36.3266 44.5261 35.4383C46.1067 34.5754 47.8508 33.5602 48.4503 33.2049L49.4859 32.545L50.4941 33.5602C51.0392 34.1186 52.3745 35.4891 53.4645 36.6565C56.7074 40.0067 57.9337 40.4381 60.1138 38.89C61.2039 38.1032 62.4302 36.7581 62.1849 36.6058C58.4515 34.0932 56.6257 32.4435 51.4752 26.7839C47.115 22.0125 47.006 21.8856 44.0356 18.7893C40.1659 14.7285 38.6126 13.9671 35.615 14.627ZM43.5996 26.0479C45.8342 28.4335 47.6873 30.4639 47.7145 30.5654C47.7963 30.7177 40.6837 34.4231 40.3294 34.4231C40.1932 34.4231 39.9207 31.9106 39.6209 27.4437C39.4574 25.2103 39.2666 23.0023 39.1849 22.5455C39.1304 22.114 39.1576 21.7333 39.2939 21.7333C39.4302 21.7333 41.365 23.6875 43.5996 26.0479Z" fill="black"/>
<path d="M109.793 26.7582C107.585 27.2404 106.959 31.5042 109.002 32.3671C109.738 32.6717 111.809 32.697 112.927 32.4179C114.507 32.0118 115.134 28.484 113.799 27.2658C113.199 26.682 111.264 26.4536 109.793 26.7582Z" fill="black"/>
<path d="M65.4281 29.9564C62.7302 30.87 61.8854 32.5451 63.0572 34.677C64.1473 36.682 65.7279 36.9104 67.9352 35.413C69.3795 34.4739 69.7338 33.611 69.325 32.3167C68.998 31.2253 67.8262 29.9564 67.0087 29.7533C66.7089 29.6772 66.0004 29.7787 65.4281 29.9564Z" fill="black"/>
<path d="M148.708 42.4932C147.045 43.7368 146.473 46.0717 147.618 47.0615C148.544 47.8737 150.752 48.7112 151.515 48.5336C152.387 48.3305 153.449 47.2138 153.967 45.9194C154.567 44.4982 154.103 43.6606 152.305 42.747C150.724 41.9348 149.553 41.8587 148.708 42.4932Z" fill="black"/>
<path d="M26.7312 50.6912C16.7572 60.3101 9.50835 71.3249 4.93014 83.9132C-3.87202 108.024 -0.765372 135.129 13.269 156.804C17.4657 163.301 21.1446 167.691 27.0037 173.25C30.8461 176.904 31.1731 177.158 31.5819 176.777C32.0179 176.397 31.7726 176.118 28.3935 172.97C18.2833 163.529 10.4076 151.677 6.07469 139.419C3.97635 133.48 2.77729 128.429 1.71449 120.968C1.19672 117.338 1.27847 105.664 1.85075 101.679C4.71213 82.0859 13.1055 65.6652 27.3852 51.8333C29.1838 50.1075 30.6281 48.5847 30.6281 48.4324C30.6281 48.3055 30.4101 48.1025 30.1648 48.001C29.8105 47.8741 28.9658 48.5339 26.7312 50.6912Z" fill="black"/>
<path d="M161.707 49.296C161.707 49.5244 162.742 50.6919 163.996 51.9101C177.267 64.5492 186.342 81.7058 189.067 99.3955C191.956 118.126 188.195 137.541 178.575 153.53C177.076 156.043 174.488 160.002 173.888 160.687C173.779 160.814 172.798 162.083 171.681 163.505C168.165 167.997 161.407 174.798 157.701 177.539C156.802 178.199 156.529 178.58 156.529 179.164C156.529 179.57 156.638 179.849 156.774 179.798C156.911 179.747 158.409 178.58 160.072 177.184C170.7 168.377 179.965 155.865 185.088 143.328L186.369 140.181L188.795 140.231C191.547 140.307 192.01 140.409 191.847 140.993C190.566 145.053 190.648 144.927 189.367 145.409C187.65 146.094 187.786 146.475 189.748 146.475C191.138 146.475 191.492 146.576 192.146 147.16C192.882 147.82 193.591 148.074 193.591 147.693C193.591 147.617 193.291 147.058 192.937 146.475L192.255 145.434L192.909 143.785C193.264 142.896 193.645 141.906 193.781 141.602C194 141.043 194.109 141.094 196.861 142.795C199.177 144.216 199.777 144.47 199.94 144.165C200.104 143.886 199.94 143.556 199.341 143.023C198.85 142.592 198.496 142.033 198.496 141.653C198.496 141.145 198.36 141.018 197.787 141.018C196.943 141.018 196.343 140.511 196.398 139.851C196.452 139.495 196.261 139.343 195.716 139.292C194.844 139.191 194.817 139.013 195.362 137.059C195.635 136.044 195.689 135.485 195.471 135.155C195.335 134.876 195.144 134.673 195.062 134.673C194.436 134.673 193.809 135.409 193.291 136.704C192.664 138.328 192.555 138.404 191.656 137.896C191.165 137.643 191.029 137.668 190.947 137.922C190.866 138.099 190.484 138.379 190.13 138.506C189.585 138.683 189.312 138.658 188.931 138.328C188.413 137.896 187.868 138.023 187.868 138.632C187.868 138.835 187.623 138.988 187.323 138.988C186.669 138.988 186.669 139.064 187.187 137.693C188.468 134.318 190.239 126.247 190.893 120.714C191.302 117.263 191.302 106.679 190.893 103.076C189.285 88.9898 184.298 75.8431 176.177 64.2446C172.853 59.4733 169.146 55.1333 164.868 50.9711C162.824 48.9915 161.707 48.4077 161.707 49.296Z" fill="black"/>
<path d="M84.9942 63.3309C82.5689 63.8893 81.8604 65.2344 81.8604 69.1429C81.8604 71.4778 81.9421 71.9854 82.2691 71.9854C82.6234 71.9854 82.6779 72.9752 82.7324 78.7617L82.8141 85.5635H83.7679H84.7217L84.8035 78.7617C84.858 72.1884 84.8852 71.9854 85.403 71.9854C85.9208 71.9854 85.948 71.8077 85.948 69.5743V67.1632H95.6222H105.296V69.5743C105.296 71.8077 105.324 71.9854 105.841 71.9854C106.359 71.9854 106.386 72.1884 106.441 78.7617L106.523 85.5635H107.477H108.43L108.512 78.7617C108.567 72.8229 108.621 71.9854 109.003 71.9854C109.384 71.9854 109.411 71.5539 109.33 68.8383C109.248 65.412 109.057 64.9298 107.368 63.7624C106.659 63.2548 106.25 63.2294 96.2218 63.1786C90.499 63.1533 85.4575 63.2294 84.9942 63.3309Z" fill="black"/>
<path d="M79.789 86.6546C79.462 86.883 78.9987 87.3906 78.7262 87.7713L78.2629 88.4819H95.8672C108.485 88.4819 113.472 88.4058 113.472 88.2028C113.472 88.0505 113.063 87.5429 112.545 87.0607L111.618 86.1977H95.9762C81.5876 86.1977 80.3068 86.2485 79.789 86.6546Z" fill="black"/>
<path d="M67.3627 89.3446C65.0191 89.9283 63.057 91.8064 61.9669 94.4966C61.4219 95.8417 61.4219 96.2224 61.4764 127.338L61.5582 158.834L65.7549 160.306C68.0712 161.144 70.0606 161.753 70.1968 161.677C70.3058 161.6 70.4148 153.809 70.4148 144.368C70.4148 132.972 70.5238 126.856 70.7146 126.221C71.1506 124.749 73.4397 122.693 75.4563 121.957L77.0914 121.348L94.941 121.272C110.774 121.196 113.009 121.247 114.616 121.627C116.933 122.135 119.031 123.48 120.148 125.13L120.966 126.373L121.048 145.51L121.129 164.646L121.729 164.57C122.11 164.519 122.356 164.291 122.41 163.91C122.492 163.377 122.628 163.352 125.081 163.352C127.452 163.352 127.642 163.377 127.642 163.859C127.642 164.138 127.833 164.367 128.051 164.367C128.324 164.367 128.46 164.088 128.46 163.479C128.46 162.666 128.514 162.59 129.278 162.59H130.095L130.041 128.886L129.959 95.2073L129.169 93.6337C128.705 92.6693 127.888 91.6033 127.179 90.9942C124.808 88.9639 127.288 89.1161 96.3035 89.0654C74.6388 89.04 68.371 89.0908 67.3627 89.3446ZM125.735 96.1463C126.334 96.4762 126.825 96.8062 126.825 96.9077C126.825 97.0092 126.144 98.0498 125.299 99.1919C123.446 101.755 121.674 105.131 120.693 108.024C119.93 110.334 118.922 114.394 118.922 115.308C118.922 116.069 118.622 116.044 117.832 115.257C116.497 113.937 116.987 110.74 119.358 104.801C120.884 101.019 123.882 95.588 124.454 95.588C124.563 95.588 125.163 95.8417 125.735 96.1463ZM80.1163 98.7604C80.307 99.2426 80.4978 99.6995 80.4978 99.7756C80.4978 99.8517 79.3532 99.9025 77.9634 99.9025C75.8651 99.9025 75.32 99.9786 74.993 100.334C74.0392 101.349 71.1779 109.115 70.1151 113.531C69.7608 114.978 69.352 116.145 69.1885 116.145C68.589 116.145 67.1447 115.105 67.0084 114.572C66.8994 114.217 67.4172 112.465 68.371 109.927C70.2513 104.978 71.7774 100.791 71.7774 100.588C71.7774 100.486 70.8236 100.486 69.6245 100.588C67.6897 100.715 67.4444 100.689 66.8994 100.182C66.5724 99.8771 66.3271 99.3188 66.3271 98.8873V98.1259L71.1779 98.0498C73.8212 98.0244 76.8461 97.9483 77.8544 97.9229L79.7075 97.8721L80.1163 98.7604ZM79.9528 103.836C80.9611 104.319 80.9611 104.623 79.9255 106.527C79.4622 107.389 79.1625 108.126 79.217 108.176C79.2715 108.252 80.2525 107.389 81.3971 106.247C82.6779 104.978 83.6589 104.217 84.0132 104.217C84.531 104.217 84.5855 104.369 84.5855 105.994C84.5855 107.034 84.422 108.176 84.1767 108.735L83.7407 109.674L82.6506 108.582C81.3971 107.364 81.1791 107.389 79.5985 109.014C78.3722 110.283 77.6909 111.501 77.0914 113.531C76.8189 114.42 76.5464 115.13 76.4374 115.13C76.3556 115.13 75.9196 114.851 75.4563 114.521L74.6388 113.912L76.2466 109.369C77.9634 104.547 78.4267 103.456 78.89 103.456C79.0262 103.456 79.5167 103.633 79.9528 103.836ZM107.368 104.09C107.613 104.674 106.686 106.907 105.487 108.608C104.152 110.486 100.064 114.394 98.8379 114.978C97.9931 115.359 97.9386 115.359 97.3936 114.826C96.794 114.217 96.794 114.166 97.3663 111.577C97.5298 110.943 97.6388 109.318 97.6661 107.948C97.6661 106.577 97.8023 105.232 97.9386 104.953C98.3201 104.293 100.282 104.268 100.5 104.928C100.582 105.156 100.473 107.085 100.282 109.166C100.064 111.247 99.9279 112.998 99.9824 113.049C100.146 113.201 102.462 110.537 103.471 108.988C104.043 108.1 104.833 106.577 105.242 105.562C105.869 104.014 106.087 103.709 106.604 103.709C106.932 103.709 107.286 103.887 107.368 104.09ZM115.025 104.268C115.734 104.877 115.815 105.588 115.325 107.085C114.862 108.532 113.336 109.902 111.21 110.841C109.493 111.577 109.384 111.679 109.384 112.465C109.384 113.278 109.956 114.115 110.501 114.115C111.155 114.115 112.682 113.328 113.717 112.465C114.344 111.932 114.943 111.603 115.052 111.704C115.352 112.009 112.109 114.597 111.019 114.902C109.711 115.257 108.24 114.699 107.477 113.557C106.713 112.44 106.85 110.156 107.804 108.252C109.548 104.725 113.227 102.694 115.025 104.268ZM91.8616 104.522C92.6791 105.232 92.6518 105.588 91.8071 105.943C90.5808 106.476 88.7277 108.278 87.9919 109.724C87.1198 111.349 86.7656 113.354 87.3106 113.354C88.0191 113.354 89.9267 111.095 91.6708 108.202C93.4694 105.207 93.8236 104.902 94.7774 105.562C95.268 105.892 95.2407 105.994 94.4504 108.049C93.1969 111.171 92.8699 112.719 93.2241 113.608C93.5784 114.496 93.4694 114.623 92.3521 114.623C91.044 114.623 90.7443 114.14 90.9623 112.262L91.153 110.689L90.6353 111.45C90.3627 111.856 89.5452 112.745 88.8094 113.404C87.2288 114.851 86.3023 115.003 85.403 113.912C84.8852 113.328 84.8035 112.998 84.9397 111.501C85.1032 109.166 86.3023 106.958 88.2916 105.258C89.9812 103.811 90.8533 103.633 91.8616 104.522Z" fill="black"/>
<path d="M76.2195 122.186C73.4672 123.1 71.6413 124.75 70.9873 126.958C70.5513 128.455 70.5785 161.322 71.0145 161.322C71.3416 161.322 72.6224 160.865 85.6212 156.093L91.453 153.936L93.5241 154.698C94.6959 155.129 98.075 156.347 101.073 157.388C107.095 159.52 110.175 160.611 112.273 161.372L113.636 161.88L115.816 166.068C116.987 168.377 118.05 170.458 118.159 170.738C118.268 170.991 118.486 171.22 118.623 171.22C119.031 171.22 119.331 170.636 118.977 170.509C118.486 170.357 118.568 167.286 119.059 166.398C119.277 165.992 119.713 165.535 120.012 165.382C120.557 165.103 120.557 164.824 120.557 146.018C120.557 128.1 120.503 126.881 120.04 125.917C119.44 124.673 117.641 123.125 115.952 122.389C114.726 121.856 114.453 121.856 96.1675 121.805C78.8629 121.729 77.5548 121.78 76.2195 122.186ZM101.427 129.648C101.863 130.054 101.863 133.201 101.427 133.607C101.182 133.835 99.4921 133.912 95.4862 133.912C91.4802 133.912 89.7907 133.835 89.5454 133.607C89.2184 133.302 89.0821 130.46 89.3819 129.749C89.5182 129.394 90.3084 129.343 95.3227 129.343C99.4649 129.343 101.182 129.419 101.427 129.648Z" fill="black"/>
<path d="M80.7702 158.429C75.1565 160.459 70.442 162.21 70.3058 162.337C69.8697 162.718 64.474 188.859 64.7738 189.138C64.8283 189.189 65.5913 188.96 66.4906 188.63C68.6162 187.844 82.0783 183.351 89.4634 180.966C92.679 179.925 95.3496 179.062 95.4041 179.011C95.6221 178.783 91.3982 154.723 91.1529 154.748C91.0712 154.748 86.384 156.398 80.7702 158.429Z" fill="black"/>
<path d="M91.9434 155.306C91.9434 155.636 92.0524 156.524 92.2159 157.286C92.3521 158.047 92.7336 160.255 93.0334 162.209C93.6874 166.245 95.1045 174.544 95.5678 177.133L95.8948 178.858L104.343 181.853C109.003 183.503 114.398 185.457 116.333 186.193C121.211 188.02 127.452 190.254 127.697 190.254C127.806 190.254 127.397 189.289 126.77 188.097L125.626 185.939H124.509C122.274 185.939 120.203 185.457 119.467 184.797C118.786 184.163 118.786 184.163 118.65 178.249L118.486 172.361L115.87 167.361L113.227 162.387L107.013 160.103C94.3687 155.458 92.3249 154.722 92.1341 154.722C92.0251 154.722 91.9434 154.976 91.9434 155.306Z" fill="black"/>
<path d="M47.4147 156.677C37.9857 168.733 30.9004 178.174 31.1184 178.351C31.2274 178.428 33.026 179.037 35.1244 179.722C40.3293 181.372 59.3507 187.742 62.0758 188.757C63.6292 189.315 64.1197 189.366 64.2832 188.909C64.4467 188.554 69.2429 163.987 69.3792 162.971C69.4609 162.21 69.788 162.362 64.2832 160.433C60.904 159.241 58.1517 158.276 53.6825 156.652C51.1481 155.738 48.9952 154.977 48.9135 154.977C48.8317 154.977 48.1505 155.738 47.4147 156.677Z" fill="black"/>
<path d="M142.63 163.225V164.874H137.861H133.092V163.986V163.098H130.967H128.869V163.91C128.869 164.671 128.787 164.747 127.996 164.824C127.233 164.9 127.097 164.824 127.097 164.392C127.097 163.91 126.934 163.859 125.053 163.859C123.282 163.859 123.01 163.91 123.01 164.316C123.01 164.62 122.573 164.9 121.62 165.204C119.876 165.788 119.194 166.752 119.194 168.605V169.95H126.089H132.983L133.91 169.011C134.428 168.504 135.545 167.793 136.363 167.438C137.643 166.879 138.216 166.778 140.45 166.778C142.794 166.778 143.175 166.854 144.483 167.514C145.274 167.92 146.309 168.63 146.8 169.113L147.672 169.95H151.705C156.229 169.95 156.174 169.976 155.874 168.047C155.629 166.676 154.512 165.534 152.986 165.103L151.923 164.798L151.841 163.25L151.76 161.702L147.209 161.626L142.63 161.575V163.225ZM150.642 162.489C150.942 162.59 151.078 162.971 151.078 163.758V164.874H147.263H143.448V163.783C143.448 163.174 143.53 162.59 143.639 162.514C143.857 162.286 150.07 162.286 150.642 162.489Z" fill="black"/>
<path d="M138.734 168.707C137.126 169.062 136.254 169.57 135.028 170.864C131.103 175.001 133.829 181.245 139.797 181.803C141.459 181.955 143.257 181.473 144.756 180.433C145.928 179.62 147.182 177.514 147.4 176.016C148.054 171.702 143.257 167.667 138.734 168.707Z" fill="black"/>
<path d="M119.194 177.666C119.194 183.554 119.194 183.63 119.821 184.315C120.312 184.823 120.829 185.051 121.947 185.204C123.854 185.457 151.024 185.457 152.931 185.204C153.967 185.077 154.594 184.823 155.111 184.341L155.847 183.656V177.742V171.854L152.741 171.778C151.024 171.752 149.47 171.752 149.307 171.829C149.062 171.905 149.062 172.336 149.334 173.504C150.206 177.438 148.19 181.219 144.32 182.945C142.739 183.63 142.194 183.757 140.314 183.757C137.507 183.757 135.436 182.945 133.583 181.092C131.757 179.265 131.103 177.539 131.239 174.773C131.321 173.58 131.403 172.438 131.485 172.235C131.566 171.905 130.749 171.854 125.408 171.778L119.194 171.727V177.666Z" fill="black"/>
<path d="M36.2421 181.143C47.4696 189.518 62.7303 195.965 77.5005 198.604C84.286 199.797 86.8204 200 95.6226 200C104.643 200 107.014 199.797 114.426 198.477C124.836 196.599 135.791 192.691 144.811 187.665L147.672 186.067L146.582 185.99C145.683 185.94 145.138 186.117 143.857 186.828C139.197 189.467 129.278 193.528 123.691 195.102C114.044 197.792 106.033 198.883 95.6226 198.883C82.7872 198.883 71.805 196.954 60.1959 192.665C54.4187 190.533 46.3523 186.447 41.2563 183.072C38.1224 180.991 33.8167 179.341 36.2421 181.143Z" fill="black"/>
</svg>
