<svg width="84" height="91" viewBox="0 0 84 91" fill="none" xmlns="http://www.w3.org/2000/svg">
<path d="M32.173 61.3626C24.1383 46.418 17.8661 33.7201 18.2035 33.1938C18.5971 32.5798 23.9593 32.8618 30.0944 33.8595L41.3107 35.5778L46.52 30.1413C52.1229 24.0908 53.4019 24.017 54.2238 29.4604C55.0458 34.9038 52.8642 36.7698 51.7345 31.6145C51.1949 29.3817 50.9166 29.4315 47.64 32.8137C45.6806 34.7175 44.1386 36.5466 44.109 36.7849C44.2187 36.9982 50.8247 38.2221 58.8756 39.4979C66.8436 40.7109 73.5326 41.9977 73.6127 42.4492C73.7728 43.3523 53.9366 84.0979 51.4063 88.0452C50.1131 90.0627 49.3316 90.5132 48.3098 89.6091C47.4805 88.9812 40.2638 76.2195 32.173 61.3626ZM50.514 84.6332C51.0791 83.3673 55.5943 74.0174 60.6156 63.8781C65.6368 53.7388 69.7852 45.1535 69.7318 44.8525C69.6812 44.1627 45.7028 39.2947 43.8109 39.5559C43.0322 39.6177 43.6207 46.5782 45.2463 56.1483C46.7919 65.2668 47.5434 72.7417 47.1259 72.8164C46.5693 72.9161 44.7904 65.3147 43.1085 55.8323L39.9822 38.611L31.1554 37.0083C26.326 36.0873 22.2162 35.581 21.9913 35.9319C21.7102 36.3705 47.9797 85.32 49.1674 86.3497C49.4428 86.6886 50.088 85.8742 50.514 84.6332Z" fill="#0D3A6C"/>
<path d="M30.5221 18.8241C30.0742 15.4895 32.1269 12.0951 35.4973 10.8706C38.1161 9.85836 38.0922 9.31937 34.1041 3.82487C33.4439 2.9342 33.1742 1.81836 33.5114 1.29231C34.3544 -0.0227994 38.4129 3.44125 39.8612 6.75191C40.5719 8.33201 42.1411 10.3017 43.3282 11.3308C46.0633 13.4021 47.93 20.2854 46.1458 21.1482C45.0864 21.6484 44.6453 21.1841 44.2689 19.4665C43.8897 18.1375 43.0693 16.3441 42.3824 15.303C41.3935 13.7727 41.1715 13.7349 41.5212 15.302C41.8653 17.6463 38.2951 23.4079 36.0697 23.8064C33.5662 24.2548 30.8338 21.795 30.5221 18.8241Z" fill="#0D3A6C"/>
</svg>
