<svg width="145" height="98" viewBox="0 0 145 98" fill="none" xmlns="http://www.w3.org/2000/svg">
<path d="M101.258 7.65144C100.243 7.8399 98.4871 8.3299 97.4721 8.70682C96.4571 9.08375 91.1082 11.8353 71.3721 22.1441C49.3804 33.6214 46.5287 35.0914 46.0132 35.1857C45.1271 35.3553 44.0476 34.6014 39.8265 30.9453C37.5387 28.9288 35.6698 27.4399 35.3154 27.3268C33.4143 26.7237 31.4165 27.7037 31.4165 29.268C31.4165 30.0595 37.4904 46.1164 38.1509 47.0964C40.4709 50.4699 48.2687 49.6407 59.3693 44.8538C61.7054 43.8549 67.5537 40.9903 70.8887 39.2188C72.0809 38.578 73.0959 38.0691 73.1443 38.0691C73.1926 38.0691 72.2421 44.2884 71.0176 51.8645C68.4721 67.6764 68.3271 68.6753 68.5687 69.1276C68.8587 69.6553 69.2132 69.5988 70.8887 68.713C72.8221 67.7141 73.5148 67.0922 74.6909 65.3772C75.8187 63.7188 75.8993 63.5303 82.8754 45.8149C86.1298 37.598 88.9332 30.5307 89.1104 30.1349C89.4004 29.4564 89.6421 29.2868 92.2037 27.8545C96.1993 25.6307 105.012 20.4103 106.897 19.1287C110.764 16.528 113.293 14.2853 113.519 13.2864C113.841 11.7599 110.78 9.08375 107.542 8.0849C106.285 7.70798 102.499 7.44413 101.258 7.65144Z" fill="#84B6F4"/>
<path d="M52.1195 11.4772C51.04 11.628 47.7695 13.2299 47.6245 13.7011C47.5117 14.0215 47.705 14.4926 48.1239 14.9261C48.575 15.3972 60.0945 23.5576 60.3039 23.5576C60.5133 23.5576 72.21 17.508 72.1456 17.4326C72.0328 17.3007 57.6456 12.1745 56.5661 11.873C55.0678 11.4584 53.4083 11.3076 52.1195 11.4772Z" fill="#84B6F4"/>
<path d="M33.0923 89.5004C31.8195 90.1788 31.0462 92.0635 31.4006 93.59C31.6423 94.6454 32.3351 95.6442 33.1084 96.0588C33.7206 96.3792 35.3801 96.3981 72.5806 96.3981H111.408L112.053 95.9646C114.292 94.4192 114.228 90.8762 111.956 89.5192C111.344 89.1423 110.732 89.1423 72.5484 89.1423C35.0095 89.1423 33.7367 89.1612 33.0923 89.5004Z" fill="#84B6F4"/>
</svg>
