<svg width="106" height="99" viewBox="0 0 106 99" fill="none" xmlns="http://www.w3.org/2000/svg">
<path d="M0 49.7539V98.7539L4.82289 98.6979L9.62507 98.6139L9.68717 88.8699L9.72857 79.1539H52.9897H96.2507L96.2921 88.8699L96.3542 98.6139L101.177 98.6979L106 98.7539L105.917 67.1979C105.855 36.2859 105.855 35.5859 105.441 33.6539C104.489 29.2859 103.392 26.4299 101.467 23.2659C98.983 19.1499 95.7126 16.3779 91.3864 14.6419C89.9789 14.0819 89.3993 14.0819 69.0935 13.9979L48.2289 13.8859V36.7339V59.5539H28.9787H9.72857L9.68717 30.2099L9.62507 0.893906L4.82289 0.809906L0 0.753906V49.7539Z" fill="#84B6F4"/>
</svg>
