<?xml version="1.0" standalone="no"?>
<!DOCTYPE svg PUBLIC "-//W3C//DTD SVG 20010904//EN"
 "http://www.w3.org/TR/2001/REC-SVG-20010904/DTD/svg10.dtd">
<svg version="1.0" xmlns="http://www.w3.org/2000/svg"
 width="1280.000000pt" height="1280.000000pt" viewBox="0 0 1280.000000 1280.000000"
 preserveAspectRatio="xMidYMid meet">
<metadata>
Created by potrace 1.16, written by Peter Selinger 2001-2019
</metadata>
<g transform="translate(0.000000,1280.000000) scale(0.100000,-0.100000)"
fill="#000000" stroke="none">
<path d="M6075 10484 c-6 -2 -9 -69 -6 -181 2 -98 -2 -239 -8 -313 -6 -74 -16
-250 -22 -390 -13 -270 -13 -275 -70 -353 -16 -22 -28 -42 -26 -44 2 -2 51 4
108 12 75 11 170 15 341 14 l237 -1 40 28 c43 30 85 101 97 162 8 39 9 39
-130 13 -55 -11 -159 -25 -231 -31 -71 -6 -140 -12 -152 -14 -22 -3 -23 0 -23
77 0 44 14 243 31 441 17 199 29 390 26 425 -6 73 -26 108 -78 133 -35 16
-116 30 -134 22z"/>
<path d="M8160 9991 c-244 -79 -417 -259 -512 -531 -29 -85 -32 -107 -33 -210
0 -108 2 -119 30 -175 58 -115 174 -202 310 -231 117 -26 212 -14 332 41 77
36 101 62 83 95 -13 25 -12 25 -117 -6 -105 -31 -191 -29 -268 5 -60 27 -90
53 -118 106 -18 33 -22 56 -21 130 0 77 5 102 32 170 96 243 300 452 473 485
98 19 178 -12 212 -82 33 -68 1 -133 -134 -275 -28 -29 -47 -58 -43 -64 13
-21 89 -49 137 -49 60 0 104 18 154 63 116 106 123 290 14 396 -54 52 -158
111 -240 135 -74 22 -219 20 -291 -3z"/>
<path d="M4183 9910 c-34 -8 -103 -55 -103 -70 0 -5 14 -18 30 -30 17 -12 35
-30 41 -41 14 -26 35 -238 49 -499 27 -488 36 -594 55 -633 22 -46 59 -67 121
-67 l46 0 -7 68 c-4 37 -15 114 -26 172 -24 134 -24 182 -1 202 9 9 64 43 122
78 58 34 122 74 144 88 l38 26 37 -40 c20 -22 69 -76 109 -122 119 -132 164
-149 244 -88 40 31 85 84 76 90 -137 99 -204 164 -393 387 -160 188 -164 193
-273 315 -142 160 -199 190 -309 164z m293 -450 c82 -94 150 -174 151 -178 3
-6 -258 -152 -271 -152 -5 0 -15 99 -26 275 -6 88 -13 175 -16 193 -2 17 -1
32 4 32 5 0 76 -77 158 -170z"/>
<path d="M6905 9432 c-81 -19 -104 -187 -29 -221 27 -12 103 -13 144 -2 58 16
81 155 32 203 -22 23 -93 32 -147 20z"/>
<path d="M5277 9306 c-99 -36 -130 -102 -87 -186 40 -79 98 -88 179 -29 53 37
66 71 51 122 -12 43 -55 93 -85 101 -11 3 -37 -1 -58 -8z"/>
<path d="M8333 8812 c-61 -49 -82 -141 -40 -180 34 -32 115 -65 143 -58 32 8
71 52 90 103 22 56 5 89 -61 125 -58 32 -101 35 -132 10z"/>
<path d="M3857 8489 c-366 -379 -632 -813 -800 -1309 -323 -950 -209 -2018
306 -2872 154 -256 289 -429 504 -648 141 -144 153 -154 168 -139 16 15 7 26
-117 150 -371 372 -660 839 -819 1322 -77 234 -121 433 -160 727 -19 143 -16
603 5 760 105 772 413 1419 937 1964 66 68 119 128 119 134 0 5 -8 13 -17 17
-13 5 -44 -21 -126 -106z"/>
<path d="M8810 8544 c0 -9 38 -55 84 -103 487 -498 820 -1174 920 -1871 106
-738 -32 -1503 -385 -2133 -55 -99 -150 -255 -172 -282 -4 -5 -40 -55 -81
-111 -129 -177 -377 -445 -513 -553 -33 -26 -43 -41 -43 -64 0 -16 4 -27 9
-25 5 2 60 48 121 103 390 347 730 840 918 1334 l47 124 89 -2 c101 -3 118 -7
112 -30 -47 -160 -44 -155 -91 -174 -63 -27 -58 -42 14 -42 51 0 64 -4 88 -27
27 -26 53 -36 53 -21 0 3 -11 25 -24 48 l-25 41 24 65 c13 35 27 74 32 86 8
22 12 20 113 -47 85 -56 107 -66 113 -54 6 11 0 24 -22 45 -18 17 -31 39 -31
54 0 20 -5 25 -26 25 -31 0 -53 20 -51 46 2 14 -5 20 -25 22 -32 4 -33 11 -13
88 10 40 12 62 4 75 -5 11 -12 19 -15 19 -23 0 -46 -29 -65 -80 -23 -64 -27
-67 -60 -47 -18 10 -23 9 -26 -1 -3 -7 -17 -18 -30 -23 -20 -7 -30 -6 -44 7
-19 17 -39 12 -39 -12 0 -8 -9 -14 -20 -14 -24 0 -24 -3 -5 51 47 133 112 451
136 669 15 136 15 553 0 695 -59 555 -242 1073 -540 1530 -122 188 -258 359
-415 523 -75 78 -116 101 -116 66z"/>
<path d="M5995 7991 c-89 -22 -115 -75 -115 -229 0 -92 3 -112 15 -112 13 0
15 -39 17 -267 l3 -268 35 0 35 0 3 268 c2 259 3 267 22 267 19 0 20 7 20 95
l0 95 355 0 355 0 0 -95 c0 -88 1 -95 20 -95 19 0 20 -8 22 -267 l3 -268 35 0
35 0 3 268 c2 234 4 267 18 267 14 0 15 17 12 124 -3 135 -10 154 -72 200 -26
20 -41 21 -409 23 -210 1 -395 -2 -412 -6z"/>
<path d="M5804 7072 c-12 -9 -29 -29 -39 -44 l-17 -28 646 0 c463 0 646 3 646
11 0 6 -15 26 -34 45 l-34 34 -574 0 c-528 0 -575 -2 -594 -18z"/>
<path d="M5348 6966 c-86 -23 -158 -97 -198 -203 -20 -53 -20 -68 -18 -1294
l3 -1241 154 -58 c85 -33 158 -57 163 -54 4 3 8 310 8 682 0 449 4 690 11 715
16 58 100 139 174 168 l60 24 655 3 c581 3 663 1 722 -14 85 -20 162 -73 203
-138 l30 -49 3 -754 3 -754 22 3 c14 2 23 11 25 26 3 21 8 22 98 22 87 0 94
-1 94 -20 0 -11 7 -20 15 -20 10 0 15 11 15 35 0 32 2 35 30 35 l30 0 -2 1328
-3 1327 -29 62 c-17 38 -47 80 -73 104 -87 80 4 74 -1133 76 -795 1 -1025 -1
-1062 -11z m2142 -268 c22 -13 40 -26 40 -30 0 -4 -25 -45 -56 -90 -68 -101
-133 -234 -169 -348 -28 -91 -65 -251 -65 -287 0 -30 -11 -29 -40 2 -49 52
-31 178 56 412 56 149 166 363 187 363 4 0 26 -10 47 -22z m-1674 -103 c7 -19
14 -37 14 -40 0 -3 -42 -5 -93 -5 -77 0 -97 -3 -109 -17 -35 -40 -140 -346
-179 -520 -13 -57 -28 -103 -34 -103 -22 0 -75 41 -80 62 -4 14 15 83 50 183
69 195 125 360 125 368 0 4 -35 4 -79 0 -71 -5 -80 -4 -100 16 -12 12 -21 34
-21 51 l0 30 178 3 c97 1 208 4 245 5 l68 2 15 -35z m-6 -200 c37 -19 37 -31
-1 -106 -17 -34 -28 -63 -26 -65 2 -3 38 31 80 76 47 50 83 80 96 80 19 0 21
-6 21 -70 0 -41 -6 -86 -15 -108 l-16 -37 -40 43 c-46 48 -54 47 -112 -17 -45
-50 -70 -98 -92 -178 -10 -35 -20 -63 -24 -63 -3 0 -19 11 -36 24 l-30 24 59
179 c63 190 80 233 97 233 5 0 23 -7 39 -15z m1006 -10 c9 -23 -25 -111 -69
-178 -49 -74 -199 -228 -244 -251 -31 -15 -33 -15 -53 6 -22 24 -22 26 -1 128
6 25 10 89 11 143 0 54 5 107 10 118 14 26 86 27 94 1 3 -9 -1 -85 -8 -167 -8
-82 -13 -151 -11 -153 6 -6 91 99 128 160 21 35 50 95 65 135 23 61 31 73 50
73 12 0 25 -7 28 -15z m281 -7 c26 -24 29 -52 11 -111 -17 -57 -73 -111 -151
-148 -63 -29 -67 -33 -67 -64 0 -32 21 -65 41 -65 24 0 80 31 118 65 23 21 45
34 49 30 11 -12 -108 -114 -148 -126 -48 -14 -102 8 -130 53 -28 44 -23 134
12 209 64 139 199 219 265 157z m-850 -10 c30 -28 29 -42 -2 -56 -45 -21 -113
-92 -140 -149 -32 -64 -45 -143 -25 -143 26 0 96 89 160 203 66 118 79 130
114 104 18 -13 17 -17 -12 -98 -46 -123 -58 -184 -45 -219 13 -35 9 -40 -32
-40 -48 0 -59 19 -51 93 l7 62 -19 -30 c-10 -16 -40 -51 -67 -77 -58 -57 -92
-63 -125 -20 -19 23 -22 36 -17 95 6 92 50 179 123 246 62 57 94 64 131 29z"/>
<path d="M5673 5672 c-101 -36 -168 -101 -192 -188 -16 -59 -15 -1354 1 -1354
12 0 59 18 536 206 l214 85 76 -30 c43 -17 167 -65 277 -106 221 -84 334 -127
411 -157 l50 -20 80 -165 c43 -91 82 -173 86 -184 4 -10 12 -19 17 -19 15 0
26 23 13 28 -18 6 -15 127 3 162 8 16 24 34 35 40 20 11 20 22 20 763 0 706
-2 754 -19 792 -22 49 -88 110 -150 139 -45 21 -55 21 -726 23 -635 3 -683 1
-732 -15z m925 -294 c16 -16 16 -140 0 -156 -9 -9 -71 -12 -218 -12 -147 0
-209 3 -218 12 -12 12 -17 124 -6 152 5 14 34 16 218 16 152 0 215 -3 224 -12z"/>
<path d="M5840 4244 c-206 -80 -379 -149 -384 -154 -16 -15 -214 -1045 -203
-1056 2 -2 30 7 63 20 78 31 572 208 843 302 118 41 216 75 218 77 8 9 -147
957 -156 956 -3 0 -175 -65 -381 -145z"/>
<path d="M6250 4367 c0 -13 4 -48 10 -78 5 -30 19 -117 30 -194 24 -159 76
-486 93 -588 l12 -68 310 -118 c171 -65 369 -142 440 -171 179 -72 408 -160
417 -160 4 0 -11 38 -34 85 l-42 85 -41 0 c-82 0 -158 19 -185 45 -25 25 -25
25 -30 258 l-6 232 -96 197 -97 196 -228 90 c-464 183 -539 212 -546 212 -4 0
-7 -10 -7 -23z"/>
<path d="M4616 4313 c-346 -475 -606 -847 -598 -854 4 -3 70 -27 147 -54 191
-65 889 -316 989 -356 57 -22 75 -24 81 -6 6 14 182 982 187 1022 3 30 15 24
-187 100 -124 47 -225 85 -389 149 -93 36 -172 66 -175 66 -3 0 -28 -30 -55
-67z"/>
<path d="M8110 4055 l0 -65 -175 0 -175 0 0 35 0 35 -78 0 -77 0 0 -32 c0 -30
-3 -33 -32 -36 -28 -3 -33 0 -33 17 0 19 -6 21 -75 21 -65 0 -75 -2 -75 -18 0
-12 -16 -23 -51 -35 -64 -23 -89 -61 -89 -134 l0 -53 253 0 253 0 34 37 c19
20 60 48 90 62 47 22 68 26 150 26 86 0 100 -3 148 -29 29 -16 67 -44 85 -63
l32 -33 148 0 c166 0 164 -1 153 75 -9 54 -50 99 -106 116 l-39 12 -3 61 -3
61 -167 3 -168 2 0 -65z m294 29 c11 -4 16 -19 16 -50 l0 -44 -140 0 -140 0 0
43 c0 24 3 47 7 50 8 9 236 9 257 1z"/>
<path d="M7967 3839 c-59 -14 -91 -34 -136 -85 -144 -163 -44 -409 175 -431
61 -6 127 13 182 54 43 32 89 115 97 174 24 170 -152 329 -318 288z"/>
<path d="M7250 3486 c0 -232 0 -235 23 -262 18 -20 37 -29 78 -35 70 -10 1067
-10 1137 0 38 5 61 15 80 34 l27 27 0 233 0 232 -114 3 c-63 1 -120 1 -126 -2
-9 -3 -9 -20 1 -66 32 -155 -42 -304 -184 -372 -58 -27 -78 -32 -147 -32 -103
0 -179 32 -247 105 -67 72 -91 140 -86 249 3 47 6 92 9 100 3 13 -27 15 -223
18 l-228 2 0 -234z"/>
<path d="M4206 3349 c412 -330 972 -584 1514 -688 249 -47 342 -55 665 -55
331 0 418 8 690 60 382 74 784 228 1115 426 l105 63 -40 3 c-33 2 -53 -5 -100
-33 -171 -104 -535 -264 -740 -326 -354 -106 -648 -149 -1030 -149 -471 0
-874 76 -1300 245 -212 84 -508 245 -695 378 -115 82 -273 147 -184 76z"/>
</g>
</svg>
