<svg width="40" height="40" viewBox="0 0 40 40" fill="none" xmlns="http://www.w3.org/2000/svg">
<path d="M30.5 38.5C34.918 38.5 38.5 34.918 38.5 30.5V9.5C38.5 5.082 34.918 1.5 30.5 1.5H9.5C5.082 1.5 1.5 5.082 1.5 9.5V30.5C1.5 34.918 5.082 38.5 9.5 38.5H30.5Z" fill="#98CCFD"/>
<path d="M3.4 4.331C2.217 5.726 1.5 7.528 1.5 9.5V30.5C1.5 34.918 5.082 38.5 9.5 38.5H30.5C34.918 38.5 38.5 34.918 38.5 30.5V9.5C38.5 8.997 38.448 8.508 38.359 8.031C32.135 4.22 24.832 2 17 2C12.229 2 7.657 2.832 3.4 4.331Z" fill="#98CCFD"/>
<path d="M1.505 9.404C1.504 9.437 1.5 9.468 1.5 9.5V30.5C1.5 34.918 5.082 38.5 9.5 38.5H30.5C34.918 38.5 38.5 34.918 38.5 30.5V12.897C32.439 8.56 25.021 6 17 6C11.465 6 6.22 7.226 1.505 9.404Z" fill="#98CCFD"/>
<path d="M31 2C34.86 2 38 5.14 38 9V31C38 34.86 34.86 38 31 38H9C5.14 38 2 34.86 2 31V9C2 5.14 5.14 2 9 2H31ZM31 1H9C4.582 1 1 4.582 1 9V31C1 35.418 4.582 39 9 39H31C35.418 39 39 35.418 39 31V9C39 4.582 35.418 1 31 1Z" fill="#171818"/>
<path d="M27.5 11C27.303 11 27.108 11.0388 26.926 11.1142C26.744 11.1896 26.5786 11.3001 26.4393 11.4393C26.3001 11.5786 26.1896 11.744 26.1142 11.926C26.0388 12.108 26 12.303 26 12.5C26 12.697 26.0388 12.892 26.1142 13.074C26.1896 13.256 26.3001 13.4214 26.4393 13.5607C26.5786 13.6999 26.744 13.8104 26.926 13.8858C27.108 13.9612 27.303 14 27.5 14C27.697 14 27.892 13.9612 28.074 13.8858C28.256 13.8104 28.4214 13.6999 28.5607 13.5607C28.6999 13.4214 28.8104 13.256 28.8858 13.074C28.9612 12.892 29 12.697 29 12.5C29 12.303 28.9612 12.108 28.8858 11.926C28.8104 11.744 28.6999 11.5786 28.5607 11.4393C28.4214 11.3001 28.256 11.1896 28.074 11.1142C27.892 11.0388 27.697 11 27.5 11V11Z" fill="white"/>
<path d="M20 14C18.4087 14 16.8826 14.6321 15.7574 15.7574C14.6321 16.8826 14 18.4087 14 20C14 21.5913 14.6321 23.1174 15.7574 24.2426C16.8826 25.3679 18.4087 26 20 26C21.5913 26 23.1174 25.3679 24.2426 24.2426C25.3679 23.1174 26 21.5913 26 20C26 18.4087 25.3679 16.8826 24.2426 15.7574C23.1174 14.6321 21.5913 14 20 14Z" stroke="white" stroke-width="2" stroke-miterlimit="10"/>
<path d="M33 14.5C33 10.358 29.642 7 25.5 7C23.324 7 16.676 7 14.5 7C10.358 7 7 10.358 7 14.5C7 16.676 7 23.324 7 25.5C7 29.642 10.358 33 14.5 33C16.676 33 23.324 33 25.5 33C29.642 33 33 29.642 33 25.5C33 23.324 33 16.676 33 14.5Z" stroke="white" stroke-width="2" stroke-miterlimit="10"/>
</svg>
