<svg width="36" height="39" viewBox="0 0 36 39" fill="none" xmlns="http://www.w3.org/2000/svg">
<path d="M5.26953 0.540283H30.7305C33.3633 0.540283 35.5 2.85149 35.5 5.69931V33.2395C35.5 36.0873 33.3633 38.3985 30.7305 38.3985H5.26953C2.63672 38.3985 0.5 36.0873 0.5 33.2395V5.69931C0.5 2.85149 2.63672 0.540283 5.26953 0.540283Z" fill="#98CCFD"/>
<path d="M30.7305 38.9399H5.26953C2.36328 38.9399 0 36.3836 0 33.24V5.69985C0 2.55627 2.36328 0 5.26953 0H30.7305C33.6367 0 36 2.55627 36 5.69985V33.24C36 36.3836 33.6367 38.9399 30.7305 38.9399ZM5.26953 1.08166C2.91406 1.08166 1 3.15203 1 5.69985V33.2442C1 35.7878 2.91406 37.8582 5.26953 37.8582H30.7344C33.0859 37.8582 35 35.7878 35 33.24V5.69985C35 3.15203 33.0859 1.08166 30.7305 1.08166H5.26953Z" fill="#171818"/>
<path d="M22.9414 15.8616C24.4883 17.0615 26.9375 17.7629 28.9883 17.7629V13.4997C28.6016 13.4997 28.2148 13.4532 27.8359 13.3687V16.7235C25.7852 16.7235 23.3359 16.0179 21.7852 14.8222V23.5262C21.7852 27.8824 18.5195 31.4105 14.4922 31.4105C12.9922 31.4105 11.5937 30.9203 10.4336 30.0795C11.7578 31.5415 13.6055 32.4499 15.6484 32.4499C19.6758 32.4499 22.9414 28.9176 22.9414 24.5656V15.8616ZM24.3633 11.5603C23.5742 10.6223 23.0547 9.41385 22.9414 8.07867V7.52939H21.8477C22.1211 9.22794 23.0625 10.6772 24.3633 11.5603ZM12.9805 26.7374C12.5391 26.112 12.3008 25.343 12.3008 24.5529C12.3008 22.5628 14.2656 20.4798 16.1094 20.4798C16.4492 20.4798 16.793 20.5347 17 20.6488V16.2883C16.7383 16.2334 16.3516 16.208 15.9648 16.2165V19.6094C15.6367 19.4953 15.2969 19.4404 14.9531 19.4404C13.1094 19.4404 11.1445 21.5234 11.1445 23.5135C11.1445 24.9247 11.8906 26.1458 12.9805 26.7374Z" fill="#B6DCFE"/>
<path d="M21.7852 14.8222C23.3359 16.0221 25.7852 16.7235 27.8359 16.7235V13.3687C26.6914 13.1025 25.1289 12.456 24.3633 11.556C23.0625 10.6772 22.1211 9.22794 21.8477 7.52939H18.9726V24.5656C18.9648 26.5514 17.4766 28.157 15.6367 28.157C14.5547 28.157 13.5898 27.5993 12.9805 26.7373C11.8945 26.1416 11.1445 24.9205 11.1445 23.5135C11.1445 21.5234 13.1094 19.4404 14.9531 19.4404C15.3047 19.4404 15.6445 19.4995 15.9648 19.6094V16.2165C12.0078 16.3052 7.9492 19.5291 7.99998 24.6628C8.02342 26.8092 9.14842 28.6556 10.4336 30.0795C11.5937 30.9203 12.9922 31.3682 14.4961 31.3682C18.5234 31.3682 21.7891 27.8824 21.7891 23.5262L21.7852 14.8222Z" fill="white"/>
<path d="M27.8359 13.3687V12.4603C26.8047 12.4603 25.2422 12.1476 24.3633 11.5561C25.1406 12.4772 26.7109 13.1067 27.8359 13.3687ZM21.8477 7.5294C21.8203 7.36884 21.8008 7.20406 21.7852 7.03927V6.48999H18.0156V23.5262C17.8125 25.512 16.3203 27.1219 14.4805 27.1219C13.9414 27.1219 13.4336 26.9824 12.9805 26.7374C13.5938 27.5993 14.5547 28.1613 15.6367 28.1613C17.4766 28.1613 18.9688 26.5515 18.9727 24.5656V7.5294H21.8477ZM15.9648 16.2165V15.2489C15.6328 15.2024 15.3008 15.1771 14.9648 15.1771C10.9336 15.1771 7.0625 18.5066 7.0625 23.6234C7.0625 26.3529 8.48437 28.6641 10.4336 30.0795C9.14844 28.6556 8.00391 26.8092 8 24.6628C7.98828 19.5714 12.0078 16.3052 15.9648 16.2165Z" fill="#DFF0FE"/>
</svg>
