<svg width="81" height="99" viewBox="0 0 81 99" fill="none" xmlns="http://www.w3.org/2000/svg">
<g clip-path="url(#clip0_119:2)">
<path d="M8.16744 91.7766C8.20188 94.0622 8.4172 96.3278 8.80705 98.5066C8.81569 98.5572 8.82528 98.607 8.83462 98.6576H11.2213C11.2188 98.6122 11.2162 98.5616 11.2137 98.5066C11.0546 95.2533 11.9637 75.6886 13.0607 72.3025C12.9646 72.5772 7.98239 81.4393 8.16744 91.7766Z" fill="#E6E6E6"/>
<path d="M8.34657 98.5067C8.36654 98.5572 8.38728 98.6078 8.40854 98.6576H10.1991C10.1855 98.6146 10.1698 98.564 10.1515 98.5067C9.85577 97.5574 8.9803 94.7191 8.16765 91.7767C7.29468 88.6147 6.4931 85.3327 6.56061 84.1449C6.53969 84.4127 5.93535 92.5796 8.34657 98.5067Z" fill="#E6E6E6"/>
<path d="M37.3688 95.1616C37.3863 96.3229 37.4957 97.4739 37.6938 98.5809C37.6982 98.6066 37.703 98.6319 37.7078 98.6576H38.9204C38.9191 98.6345 38.9178 98.6088 38.9165 98.5809C38.8357 96.928 39.2975 86.9879 39.8549 85.2676C39.8061 85.4071 37.2748 89.9097 37.3688 95.1616Z" fill="#E6E6E6"/>
<path d="M37.4599 98.581C37.47 98.6067 37.4805 98.6323 37.4913 98.6576H38.401C38.3942 98.6358 38.3862 98.6101 38.3769 98.581C38.2266 98.0987 37.7818 96.6566 37.369 95.1617C36.9254 93.5552 36.5182 91.8878 36.5525 91.2843C36.5419 91.4203 36.2348 95.5697 37.4599 98.581Z" fill="#E6E6E6"/>
<path d="M30.1902 28.9603L27.1036 32.8644L29.0242 33.2303L31.6993 29.2047L30.1902 28.9603Z" fill="#A52A2A"/>
<path d="M18.1145 95.6204L19.971 95.6203L20.8541 82.8867L18.1142 82.8869L18.1145 95.6204Z" fill="#9F616A"/>
<path d="M17.0001 92.2782L20.6561 92.278C19.9932 96.556 21.8667 92.7145 22.3036 93.4915C22.7406 94.2685 22.986 95.3223 22.9861 96.4211V96.5558L17.0002 96.5562L17.0001 92.2782Z" fill="black"/>
<path d="M17.2408 43C17.2408 43 16.4362 44.6173 17.7685 50.9218L17.5338 85.4904L21.8511 85.3406L22.8001 68.4783L24.528 43.8714L17.2408 43Z" fill="black"/>
<path d="M12.6369 44.6821C12.3818 44.6808 12.1371 44.5029 11.9546 44.186C11.7721 43.8691 11.6662 43.4382 11.6594 42.9848L11.4568 29.4068L14.9235 17.7109C15.0022 17.4476 15.1174 17.2242 15.2581 17.062C15.3989 16.8999 15.5606 16.8042 15.7279 16.7841L18.3699 16.4824L18.1417 43.8519L12.7228 44.6756C12.6941 44.68 12.6654 44.6821 12.6369 44.6821Z" fill="#2F2825"/>
<path d="M25.7153 54.9184L25.668 54.9056C20.1449 53.4076 15.9771 51.9716 15.9357 51.9572L15.8839 51.9394L17.3317 45.6771C17.3203 45.0227 17.0069 26.6471 17.6069 21.3677C18.1876 16.2568 20.9253 15.4192 21.2373 15.3404L21.5505 13.4947L25.5081 17.1568L26.1983 21.3812L26.3385 32.9593L25.7153 54.9184Z" fill="#3F89E6"/>
<path d="M20.2766 37.39C17.7269 37.39 15.6525 32.4599 15.6525 26.4001C15.6525 20.3402 17.7269 15.4102 20.2766 15.4102C22.8264 15.4102 24.9008 20.3402 24.9008 26.4001C24.9008 32.4599 22.8264 37.39 20.2766 37.39ZM20.2766 16.4861C18.0605 16.4861 16.2575 20.9335 16.2575 26.4001C16.2575 31.8667 18.0605 36.3141 20.2766 36.3141C22.4928 36.3141 24.2958 31.8667 24.2958 26.4001C24.2958 20.9335 22.4928 16.4861 20.2766 16.4861Z" fill="#2F2825"/>
<path d="M28.0988 31.0881C27.9206 31.088 27.7443 31.1535 27.581 31.2805C27.4178 31.4075 27.271 31.5932 27.1501 31.826H20.4981L18.0615 32.7483L18.4616 38.2354L27.1292 34.9205C27.2727 35.2087 27.4545 35.4283 27.658 35.5594C27.8615 35.6906 28.0803 35.7289 28.2943 35.671C28.5083 35.6131 28.7107 35.4608 28.8831 35.228C29.0555 34.9952 29.1924 34.6893 29.2812 34.3383C29.37 33.9872 29.408 33.6022 29.3916 33.2184C29.3753 32.8345 29.3051 32.4641 29.1875 32.1409C29.0699 31.8177 28.9087 31.552 28.7185 31.3681C28.5284 31.1842 28.3153 31.0879 28.0988 31.0881Z" fill="#9F616A"/>
<path d="M27.6105 12.7172C28.8624 10.4908 28.8624 6.88105 27.6105 4.65464C26.3585 2.42823 24.3286 2.42823 23.0767 4.65464C21.8247 6.88105 21.8247 10.4908 23.0767 12.7172C24.3286 14.9436 26.3585 14.9436 27.6105 12.7172Z" fill="#9F616A"/>
<path d="M22.3283 4.12816L22.1729 3.57188L22.9549 2.88092C22.9549 2.88092 23.8177 0.384664 25.3788 1.08617C26.9399 1.78767 27.6422 2.2075 27.6422 2.2075L28.4223 2.90549L28.0308 3.59821L28.7331 4.01806L28.2639 4.43263L28.8098 4.99067L28.5159 7.85134C28.5159 7.85134 28.0278 5.68163 27.0894 6.51078C26.1509 7.33993 24.4344 6.08216 24.4344 6.08216L22.9431 11.2146C22.9431 11.2146 22.6355 9.41542 22.0869 9.89517C22.0869 9.89517 20.6856 5.92642 22.3283 4.12816Z" fill="#684A2F"/>
<path d="M50.1846 39.2264L50.0476 34.6562L48.6646 32.6581L47.8635 36.8901L43.3826 47.5178C43.1707 47.5782 42.973 47.7452 42.8129 47.9991C42.6527 48.253 42.5368 48.5832 42.4789 48.9505C42.4209 49.3179 42.4234 49.7071 42.4859 50.0721C42.5485 50.437 42.6685 50.7625 42.8318 51.01C42.9951 51.2574 43.1949 51.4165 43.4074 51.4684C43.62 51.5203 43.8365 51.4629 44.0312 51.3028C44.226 51.1428 44.3909 50.8869 44.5065 50.5654C44.622 50.244 44.6834 49.8703 44.6833 49.4888C44.6833 49.4619 44.6816 49.4358 44.681 49.4092L50.1846 39.2264Z" fill="#FFB7B7"/>
<path d="M52.8476 96.8258L51.788 96.8256L51.2838 89.5573L52.8477 89.5574L52.8476 96.8258Z" fill="#FFB7B7"/>
<path d="M53.1178 98.6523L49.7011 98.6521V98.5753C49.7011 97.9481 49.8412 97.3465 50.0906 96.903C50.34 96.4595 50.6783 96.2104 51.031 96.2103H51.0311L53.1179 96.2105L53.1178 98.6523Z" fill="black"/>
<path d="M57.7743 96.8258L56.7147 96.8256L56.2105 89.5573L57.7744 89.5574L57.7743 96.8258Z" fill="#FFB7B7"/>
<path d="M58.0445 98.6523L54.6277 98.6521V98.5753C54.6278 97.9481 54.7679 97.3465 55.0173 96.903C55.2667 96.4595 55.6049 96.2104 55.9576 96.2103H55.9577L58.0446 96.2105L58.0445 98.6523Z" fill="black"/>
<path d="M56.6543 20.1345C57.103 16.8404 57.483 13.125 56.637 10.0911C56.0499 7.98597 53.8782 7.27708 52.6332 8.03546C51.3883 8.79383 50.4882 10.8514 50.0924 13.0947C49.6965 15.3381 49.7425 17.7555 49.915 20.0876C52.2046 20.0094 54.4942 19.9312 56.6543 20.1345Z" fill="#684A2F"/>
<path d="M54.0712 19.5517C55.365 18.2939 55.8405 15.4091 55.1333 13.1082C54.426 10.8073 52.8037 9.96173 51.5099 11.2195C50.216 12.4773 49.7405 15.3621 50.4478 17.663C51.1551 19.9639 52.7773 20.8095 54.0712 19.5517Z" fill="#FFB8B8"/>
<path d="M56.0545 14.4076C56.0629 13.6085 55.981 12.8145 55.8135 12.0729C55.6461 11.3312 55.3965 10.6569 55.0796 10.0902C54.7627 9.5234 54.385 9.0757 53.9689 8.77366C53.5528 8.47162 53.1068 8.3214 52.6574 8.33194C52.208 8.34247 51.7643 8.51355 51.3529 8.83499C50.9414 9.15643 50.5704 9.62168 50.262 10.2031C49.9537 10.7845 49.7141 11.4702 49.5577 12.2195C49.4013 12.9688 49.3312 13.7663 49.3515 14.5648C51.6367 14.5734 53.922 14.582 56.0545 14.4076Z" fill="#684A2F"/>
<path d="M48.5031 43.9908C48.5031 43.9908 48.0686 55.2131 48.3044 58.6364C48.5402 62.0597 51.1074 91.9879 51.1074 91.9879L53.0439 91.9817L53.6188 56.7133L55.9087 92.3245L57.9114 91.9542L59.0474 57.1199C59.0474 57.1199 58.8693 44.0786 57.4214 42.7709L48.5031 43.9908Z" fill="black"/>
<path d="M51.5407 55.1151C50.1183 55.1142 48.7165 54.5106 47.4515 53.3542L47.4238 53.329L48.4942 40.6988L48.4247 25.6459C48.4228 25.2327 48.4672 24.823 48.5553 24.4407C48.6434 24.0583 48.7734 23.711 48.9378 23.419C49.1022 23.127 49.2976 22.8961 49.5127 22.7399C49.7278 22.5836 49.9582 22.5051 50.1905 22.5089L55.9341 22.6026C56.1884 22.6067 56.4394 22.7039 56.6717 22.888C56.904 23.0722 57.1125 23.3393 57.2842 23.6729C57.4559 24.0065 57.5872 24.3993 57.6699 24.827C57.7525 25.2547 57.7848 25.708 57.7648 26.1588L57.2273 38.2263L59.0047 48.0209L58.6958 48.7513C57.8629 50.7271 56.7827 52.3309 55.5407 53.4355C54.2988 54.54 52.9293 55.1151 51.5407 55.1151V55.1151Z" fill="#3F89E6"/>
<path d="M47.8476 35.4953L48.4495 24.5742L48.6429 24.0847C48.7754 23.7495 48.9438 23.4641 49.1385 23.2449C49.3332 23.0257 49.5503 22.8771 49.7774 22.8075C50.0045 22.7379 50.2371 22.7488 50.4618 22.8395C50.6865 22.9302 50.8989 23.0989 51.0869 23.3359L51.2526 23.5451L51.089 34.6127L47.8476 35.4953Z" fill="#3F89E5"/>
<path d="M72.509 88.8514C74.0649 88.0871 74.7289 92.2888 73.1769 93.0775C71.6211 93.8418 70.9571 89.6401 72.509 88.8514Z" fill="#84B6F4"/>
<path d="M63.8824 94.2592C65.4383 93.4949 66.1023 97.6966 64.5503 98.4853C62.9945 99.2496 62.3305 95.0479 63.8824 94.2592Z" fill="#84B6F4"/>
<path d="M60.3911 49.9449L60.4151 49.9328L64.4227 69.2815L64.9511 69.0174L60.9148 49.5299C60.906 49.2296 60.8398 48.9436 60.727 48.7194C60.6143 48.4953 60.4618 48.3464 60.2949 48.2976C58.2907 47.734 57.4783 50.8978 57.4783 50.8978L57.4864 50.9189L61.5837 70.7006L62.112 70.4365L58.1353 51.2368C59.3459 49.1074 60.3911 49.9449 60.3911 49.9449Z" fill="#84B6F4"/>
<path d="M64.9842 95.3477C64.4124 95.3388 63.8571 95.0056 63.3992 94.3964C62.9414 93.7873 62.6048 92.934 62.4386 91.961C61.6738 87.509 59.8691 76.8418 59.6299 73.9469C59.3186 70.1777 61.073 69.1058 61.112 69.0828C61.1593 69.0546 61.8646 68.7035 62.8408 68.2177C64.5003 67.3918 67.008 66.1437 67.1002 66.07C67.4887 65.8298 67.901 65.7348 68.3112 65.7912C68.7213 65.8475 69.1205 66.0539 69.4837 66.3974C69.8581 66.7476 70.1885 67.2295 70.4548 67.8138C70.7212 68.3981 70.9179 69.0727 71.0331 69.7964L73.6145 86.1281C73.7738 87.1292 73.7291 88.1983 73.4884 89.1466C73.2476 90.095 72.8263 90.8616 72.2987 91.3114C70.3069 93.0131 67.3857 95.2831 65.0235 95.3472C65.0104 95.3475 64.9972 95.3477 64.9842 95.3477Z" fill="#2F2825"/>
<path d="M59.9649 49.2755L58.6673 35.7959L58.5225 31.2467L56.4246 32.4687L58.1939 50.1193C58.1225 50.4628 58.1056 50.8347 58.145 51.1941C58.1844 51.5536 58.2786 51.8869 58.4174 52.1575C58.5561 52.4282 58.734 52.6257 58.9317 52.7287C59.1293 52.8316 59.3391 52.8359 59.538 52.7412C59.7369 52.6464 59.9174 52.4562 60.0596 52.1913C60.2018 51.9264 60.3004 51.5971 60.3444 51.2394C60.3885 50.8816 60.3764 50.5092 60.3095 50.1628C60.2426 49.8165 60.1234 49.5095 59.9649 49.2755V49.2755Z" fill="#FFB7B7"/>
<path d="M59.0222 34.9505L55.7479 34.6338L54.9785 23.6472L55.0534 23.5317C55.2378 23.2473 55.4519 23.0304 55.6836 22.8936C55.9152 22.7567 56.1598 22.7026 56.4032 22.7342C56.6466 22.7659 56.8841 22.8828 57.1021 23.0781C57.3201 23.2734 57.5142 23.5434 57.6733 23.8725L57.8248 24.1857L57.827 24.2055L59.0222 34.9505Z" fill="#3F89E5"/>
<path d="M72.356 88.6173L69.0093 68.4739L61.1397 72.4289L61.0927 72.1332L69.1267 68.0955L69.1509 68.2412L72.5218 88.5303L72.356 88.6173Z" fill="#84B6F4"/>
<path d="M12.8867 43.2379L12.5303 29.4196L16.1806 16.7307L16.3344 16.8707L12.7052 29.487L13.0594 43.2237L12.8867 43.2379Z" fill="#A52A2A"/>
<path d="M79.9786 98.964H0.373909C0.350985 98.964 0.329 98.9478 0.312791 98.9191C0.296582 98.8904 0.287476 98.8514 0.287476 98.8108C0.287476 98.7702 0.296582 98.7312 0.312791 98.7025C0.329 98.6737 0.350985 98.6576 0.373909 98.6576H79.9786C80.0016 98.6576 80.0235 98.6737 80.0398 98.7025C80.056 98.7312 80.0651 98.7702 80.0651 98.8108C80.0651 98.8514 80.056 98.8904 80.0398 98.9191C80.0235 98.9478 80.0016 98.964 79.9786 98.964Z" fill="#CCCCCC"/>
<path d="M18.5042 39.2639L17.7435 35.24L17.5594 21.8264L17.8836 19.9232C18.0002 19.2382 18.1935 18.6022 18.4517 18.0532C18.7099 17.5042 19.0278 17.0535 19.3863 16.7283C19.7447 16.403 20.1365 16.2097 20.538 16.1601C20.9395 16.1105 21.3425 16.2056 21.7228 16.4396C22.1032 16.6736 22.453 17.0417 22.7514 17.522C23.0499 18.0022 23.2907 18.5846 23.4595 19.2343C23.6283 19.884 23.7216 20.5877 23.7338 21.303C23.7461 22.0184 23.6769 22.7308 23.5306 23.3976L21.7934 31.3143L21.8817 31.6191L25.6455 31.5649L26.9824 35.8445L18.5042 39.2639Z" fill="#3F89E6"/>
<path d="M42.4811 67.8993L42.4784 67.9002L38.3068 69.3854L34.7182 71.9554C34.6718 71.9886 34.6222 72.0052 34.5722 72.0044C34.5222 72.0035 34.4727 71.9851 34.4267 71.9502C34.3807 71.9154 34.339 71.8648 34.304 71.8013C34.269 71.7378 34.2413 71.6626 34.2226 71.5801C34.2182 71.5607 34.2144 71.541 34.211 71.5209L31.5894 55.9103C31.5618 55.7485 31.5694 55.5743 31.6107 55.4221C31.6519 55.2698 31.7238 55.1507 31.8121 55.0882L35.4663 52.4712L35.469 52.4703L39.6406 50.9851L43.2292 48.4151C43.3229 48.348 43.4278 48.3499 43.5207 48.4202C43.6136 48.4906 43.687 48.6237 43.7248 48.7904C43.7292 48.8098 43.733 48.8295 43.7364 48.8496L46.358 64.4602C46.3856 64.6219 46.378 64.7961 46.3368 64.9484C46.2955 65.1006 46.2236 65.2198 46.1354 65.2823L42.4811 67.8993Z" fill="#E5E5E5"/>
<path d="M38.0046 57.4134C37.048 56.813 36.0592 56.2871 35.066 55.8503L35.0162 55.8284L35.5205 58.8311L38.0896 57.4667L38.0046 57.4134ZM35.5598 58.7014L35.1017 55.9736C36.0471 56.392 36.9878 56.8913 37.9002 57.4585L35.5598 58.7014ZM43.0174 61.4724C42.5721 61.0246 42.1204 60.5958 41.6623 60.186C41.536 60.0729 41.4093 59.9614 41.2822 59.8515C40.5065 59.1804 39.7189 58.5686 38.9194 58.0161L38.9101 58.0096L35.6714 59.7297L36.5558 64.9962L43.0774 61.5327L43.0174 61.4724ZM36.5952 64.8666L35.7443 59.7997L38.9076 58.1197C39.6786 58.6528 40.4406 59.2433 41.1939 59.8913C41.3247 60.0037 41.455 60.1178 41.5849 60.2337C42.0385 60.6376 42.4864 61.0607 42.9285 61.503L36.5952 64.8666ZM43.0174 61.4724C42.5721 61.0246 42.1204 60.5958 41.6623 60.186C41.536 60.0729 41.4093 59.9614 41.2822 59.8515C40.5065 59.1804 39.7189 58.5686 38.9194 58.0161L38.9101 58.0096L35.6714 59.7297L36.5558 64.9962L43.0774 61.5327L43.0174 61.4724ZM36.5952 64.8666L35.7443 59.7997L38.9076 58.1197C39.6786 58.6528 40.4406 59.2433 41.1939 59.8913C41.3247 60.0037 41.455 60.1178 41.5849 60.2337C42.0385 60.6376 42.4864 61.0607 42.9285 61.503L36.5952 64.8666ZM38.0046 57.4134C37.048 56.813 36.0592 56.2871 35.066 55.8503L35.0162 55.8284L35.5205 58.8311L38.0896 57.4667L38.0046 57.4134ZM35.5598 58.7014L35.1017 55.9736C36.0471 56.392 36.9878 56.8913 37.9002 57.4585L35.5598 58.7014ZM38.0046 57.4134C37.048 56.813 36.0592 56.2871 35.066 55.8503L35.0162 55.8284L35.5205 58.8311L38.0896 57.4667L38.0046 57.4134ZM35.5598 58.7014L35.1017 55.9736C36.0471 56.392 36.9878 56.8913 37.9002 57.4585L35.5598 58.7014ZM43.0174 61.4724C42.5721 61.0246 42.1204 60.5958 41.6623 60.186C41.536 60.0729 41.4093 59.9614 41.2822 59.8515C40.5065 59.1804 39.7189 58.5686 38.9194 58.0161L38.9101 58.0096L35.6714 59.7297L36.5558 64.9962L43.0774 61.5327L43.0174 61.4724ZM36.5952 64.8666L35.7443 59.7997L38.9076 58.1197C39.6786 58.6528 40.4406 59.2433 41.1939 59.8913C41.3247 60.0037 41.455 60.1178 41.5849 60.2337C42.0385 60.6376 42.4864 61.0607 42.9285 61.503L36.5952 64.8666ZM33.9279 67.3706L33.9447 67.4704L36.162 66.2928L36.4052 67.7405L34.1878 68.9181L34.2046 69.0179L36.4781 67.8105L36.2014 66.1631L33.9279 67.3706ZM37.1343 68.4407L37.3042 69.4524L37.3587 69.4133L37.2072 68.5107L45.8532 63.919L45.8364 63.8191L37.1343 68.4407ZM45.4257 61.373L45.4089 61.2732L36.7067 65.8948L36.9834 67.5422L45.6855 62.9206L45.6688 62.8207L37.0227 67.4125L36.7796 65.9648L45.4257 61.373ZM38.9628 56.8942C37.6376 55.9887 36.2763 55.26 34.8902 54.7141L34.7204 53.7032L34.6658 53.7422L34.8369 54.7609L34.8944 54.8225C36.2751 55.3678 37.6311 56.0948 38.9511 56.9977L38.9605 57.0041L44.2226 54.2095L44.2059 54.1097L38.9628 56.8942ZM34.9423 59.0294L32.7249 60.207L32.7417 60.3069L35.0152 59.0994L34.1746 54.094L34.12 54.133L34.9423 59.0294ZM44.3735 55.1081L39.7475 57.5649L39.8228 57.6211C40.5323 58.152 41.24 58.739 41.9458 59.3819C42.0462 59.4732 42.1464 59.5658 42.2466 59.6596C42.7448 60.1249 43.2392 60.6161 43.7297 61.1332L43.7842 61.1573L45.258 60.3746L45.2412 60.2748L43.771 61.0556C43.2856 60.5435 42.7958 60.056 42.3014 59.5932C42.2026 59.5005 42.1036 59.4089 42.0044 59.3184C41.3135 58.6873 40.6189 58.1084 39.9206 57.5817L44.3903 55.2079L44.3735 55.1081ZM34.3555 69.9165L34.3722 70.0163L36.5896 68.8387L36.7583 69.8431L36.8129 69.8041L36.629 68.7091L34.3555 69.9165ZM32.8926 61.2054L32.9093 61.3053L35.1267 60.1277L35.9776 65.1946L33.7602 66.3722L33.777 66.472L36.0505 65.2646L35.1661 59.998L32.8926 61.2054ZM38.0046 57.4134C37.048 56.813 36.0592 56.2871 35.066 55.8503L35.0162 55.8284L35.5205 58.8311L38.0896 57.4667L38.0046 57.4134ZM35.5598 58.7014L35.1017 55.9736C36.0471 56.392 36.9878 56.8913 37.9002 57.4585L35.5598 58.7014ZM43.0174 61.4724C42.5721 61.0246 42.1204 60.5958 41.6623 60.186C41.536 60.0729 41.4093 59.9614 41.2822 59.8515C40.5065 59.1804 39.7189 58.5686 38.9194 58.0161L38.9101 58.0096L35.6714 59.7297L36.5558 64.9962L43.0774 61.5327L43.0174 61.4724ZM36.5952 64.8666L35.7443 59.7997L38.9076 58.1197C39.6786 58.6528 40.4406 59.2433 41.1939 59.8913C41.3247 60.0037 41.455 60.1178 41.5849 60.2337C42.0385 60.6376 42.4864 61.0607 42.9285 61.503L36.5952 64.8666ZM38.0046 57.4134C37.048 56.813 36.0592 56.2871 35.066 55.8503L35.0162 55.8284L35.5205 58.8311L38.0896 57.4667L38.0046 57.4134ZM35.5598 58.7014L35.1017 55.9736C36.0471 56.392 36.9878 56.8913 37.9002 57.4585L35.5598 58.7014ZM43.0174 61.4724C42.5721 61.0246 42.1204 60.5958 41.6623 60.186C41.536 60.0729 41.4093 59.9614 41.2822 59.8515C40.5065 59.1804 39.7189 58.5686 38.9194 58.0161L38.9101 58.0096L35.6714 59.7297L36.5558 64.9962L43.0774 61.5327L43.0174 61.4724ZM36.5952 64.8666L35.7443 59.7997L38.9076 58.1197C39.6786 58.6528 40.4406 59.2433 41.1939 59.8913C41.3247 60.0037 41.455 60.1178 41.5849 60.2337C42.0385 60.6376 42.4864 61.0607 42.9285 61.503L36.5952 64.8666Z" fill="white"/>
<path d="M38.7495 57.8837C38.9618 59.1479 38.1475 62.648 38.1475 62.648C38.1475 62.648 36.3872 60.5152 36.1749 59.251C36.073 58.6438 36.1108 57.9895 36.2801 57.432C36.4494 56.8745 36.7364 56.4594 37.0778 56.2781C37.4192 56.0968 37.7871 56.1641 38.1006 56.4652C38.4141 56.7663 38.6475 57.2765 38.7495 57.8837H38.7495Z" fill="#2F2825"/>
<path d="M38.034 58.1552C38.0688 58.3622 38.0682 58.5829 38.0325 58.7893C37.9967 58.9957 37.9273 59.1787 37.8331 59.315C37.7389 59.4513 37.624 59.5349 37.5031 59.5551C37.3822 59.5754 37.2606 59.5314 37.1537 59.4287C37.0468 59.3261 36.9595 59.1694 36.9027 58.9784C36.8459 58.7875 36.8222 58.5709 36.8346 58.356C36.847 58.1412 36.895 57.9377 36.9725 57.7713C37.0499 57.6049 37.1534 57.4831 37.2698 57.4213C37.3471 57.3802 37.4282 57.3665 37.5084 57.3812C37.5886 57.3958 37.6665 57.4385 37.7374 57.5066C37.8084 57.5748 37.8711 57.6671 37.922 57.7784C37.9729 57.8897 38.011 58.0178 38.034 58.1552Z" fill="white"/>
<path d="M38.3216 64.3272C38.5218 64.3272 38.6841 64.0388 38.6841 63.6832C38.6841 63.3275 38.5218 63.0391 38.3216 63.0391C38.1215 63.0391 37.9592 63.3275 37.9592 63.6832C37.9592 64.0388 38.1215 64.3272 38.3216 64.3272Z" fill="#2F2825"/>
<path d="M42.273 55.2155L39.7561 56.5522C39.753 56.5539 39.7498 56.5552 39.7465 56.5559L40.3211 52.257C40.3245 52.2303 40.3319 52.2057 40.3424 52.1857C40.3529 52.1657 40.3663 52.1511 40.381 52.1433C40.3958 52.1354 40.4114 52.1347 40.4264 52.1411C40.4414 52.1476 40.4551 52.161 40.4662 52.18L41.6783 54.2163L41.7363 54.3137L42.273 55.2155Z" fill="white"/>
<path opacity="0.2" d="M42.2737 55.2155L41.4136 55.6718L41.6527 54.3583L41.6699 54.2636L41.6785 54.2162L41.7366 54.3137L42.2737 55.2155Z" fill="black"/>
<path d="M43.6743 54.4713L41.4975 55.6274L41.7363 54.3137L41.7535 54.2191L42.0647 52.5072C42.0708 52.4803 42.08 52.456 42.0917 52.4359C42.1034 52.4158 42.1173 52.4002 42.1326 52.3903C42.1479 52.3804 42.1642 52.3763 42.1804 52.3783C42.1967 52.3803 42.2125 52.3884 42.2269 52.4019C42.2307 52.406 42.2343 52.4104 42.2377 52.4153L43.6743 54.4713Z" fill="white"/>
</g>
<defs>
<clipPath id="clip0_119:2">
<rect x="0.287476" y="0.961853" width="79.7776" height="98.0031" rx="15" fill="white"/>
</clipPath>
</defs>
</svg>
